# This file uses meters as units for non-parametric coordinates.

mtllib fiume.mtl
g default
v -518.748283 -50.000000 577.507964
v -24.653664 -50.000000 577.507964
v -518.748283 50.000000 577.507964
v -24.653664 50.000000 577.507964
v -518.748283 50.000000 347.466140
v -24.653664 50.000000 347.466140
v -518.748283 -50.000000 347.466140
v -24.653664 -50.000000 347.466140
v -518.748283 50.000000 462.487052
v -518.748283 -50.000000 462.487052
v -24.653664 -50.000000 462.487052
v -24.653664 50.000000 462.487052
v -518.748283 -50.000000 404.976596
v -518.748283 50.000000 404.976596
v -24.653664 50.000000 404.976596
v -24.653664 -50.000000 404.976596
v -518.748283 50.000000 519.997508
v -518.748283 -50.000000 519.997508
v -24.653664 -50.000000 519.997508
v -24.653664 50.000000 519.997508
v -271.700973 -50.000000 577.507964
v -271.700973 31.164267 577.507964
v -271.700973 50.000000 519.997508
v -271.700973 49.132504 462.487052
v -271.700973 50.000000 404.976596
v -271.700973 50.000000 347.466140
v -271.700973 -50.000000 347.466140
v -271.700973 -50.000000 404.976596
v -271.700973 -50.000000 462.487052
v -271.700973 -50.000000 519.997508
v -395.224628 -50.000000 577.507964
v -395.224628 50.000000 577.507964
v -395.224628 50.000000 519.997508
v -395.224628 50.000000 462.487052
v -395.224628 50.000000 404.976596
v -395.224628 65.884399 347.466140
v -395.224628 -50.000000 347.466140
v -395.224628 -50.000000 404.976596
v -395.224628 -50.000000 462.487052
v -395.224628 -50.000000 519.997508
v -148.177318 50.000000 462.487052
v -148.177318 66.710480 519.997508
v -148.177318 50.000000 577.507964
v -148.177318 -50.000000 577.507964
v -148.177318 -50.000000 519.997508
v -148.177318 -50.000000 462.487052
v -148.177318 -50.000000 404.976596
v -148.177318 -50.000000 347.466140
v -148.177318 38.243027 347.466140
v -148.177318 50.000000 404.976596
vt 0.001872 0.685073
vt 0.080106 0.685073
vt 0.080106 0.998008
vt 0.001872 0.998008
vt 0.158340 0.685073
vt 0.158340 0.998008
vt 0.236574 0.685073
vt 0.236574 0.998008
vt 0.314807 0.685073
vt 0.314807 0.998008
vt 0.555466 0.998008
vt 0.555466 0.685073
vt 0.633699 0.685073
vt 0.633699 0.998008
vt 0.477232 0.998008
vt 0.477232 0.685073
vt 0.398998 0.998008
vt 0.398998 0.685073
vt 0.320764 0.685073
vt 0.320764 0.998008
vt 0.625011 0.318678
vt 0.703245 0.318678
vt 0.703245 0.396912
vt 0.625011 0.396912
vt 0.781478 0.318678
vt 0.781478 0.396912
vt 0.703245 0.475146
vt 0.625011 0.475146
vt 0.859712 0.318678
vt 0.859712 0.396912
vt 0.781478 0.475146
vt 0.703245 0.553380
vt 0.625011 0.553380
vt 0.937946 0.318678
vt 0.937946 0.396912
vt 0.859712 0.475146
vt 0.781478 0.553380
vt 0.703245 0.631614
vt 0.625011 0.631614
vt 0.937946 0.475146
vt 0.859712 0.553380
vt 0.781478 0.631614
vt 0.937946 0.553380
vt 0.859712 0.631614
vt 0.937946 0.631614
vt 0.306310 0.603088
vt 0.384543 0.603088
vt 0.384543 0.681322
vt 0.306310 0.681322
vt 0.306310 0.524854
vt 0.384543 0.524854
vt 0.462777 0.603088
vt 0.462777 0.681322
vt 0.306310 0.446620
vt 0.384543 0.446620
vt 0.462777 0.524854
vt 0.541011 0.603088
vt 0.541011 0.681322
vt 0.306310 0.368386
vt 0.384543 0.368386
vt 0.462777 0.446620
vt 0.541011 0.524854
vt 0.619245 0.603088
vt 0.619245 0.681322
vt 0.462777 0.368386
vt 0.541011 0.446620
vt 0.619245 0.524854
vt 0.541011 0.368386
vt 0.619245 0.446620
vt 0.619245 0.368386
vt 0.320764 0.001992
vt 0.398998 0.001992
vt 0.398998 0.314927
vt 0.320764 0.314927
vt 0.477232 0.001992
vt 0.477232 0.255984
vt 0.555466 0.001992
vt 0.555466 0.314927
vt 0.633699 0.001992
vt 0.633699 0.314927
vt 0.001872 0.051700
vt 0.080106 0.001992
vt 0.080106 0.364635
vt 0.001872 0.364635
vt 0.158340 0.051700
vt 0.158340 0.364635
vt 0.236574 0.088492
vt 0.236574 0.364635
vt 0.314807 0.051700
vt 0.314807 0.364635
vn 0.000000 0.000000 1.000000
vn -0.000000 0.000000 1.000000
vn -0.000000 0.000000 1.000000
vn 0.000000 0.000000 1.000000
vn 0.000000 1.000000 0.000000
vn 0.037967 0.995946 0.081548
vn 0.019920 0.999040 0.039017
vn 0.000000 1.000000 0.000000
vn 0.000000 0.000000 -1.000000
vn 0.000000 0.000000 -1.000000
vn 0.000000 0.000000 -1.000000
vn 0.000000 0.000000 -1.000000
vn 0.000000 -1.000000 0.000000
vn 0.000000 -1.000000 0.000000
vn 0.000000 -1.000000 0.000000
vn 0.000000 -1.000000 0.000000
vn 1.000000 0.000000 0.000000
vn 1.000000 0.000000 0.000000
vn 1.000000 0.000000 0.000000
vn 1.000000 0.000000 0.000000
vn -1.000000 0.000000 0.000000
vn -1.000000 0.000000 0.000000
vn -1.000000 0.000000 0.000000
vn -1.000000 0.000000 0.000000
vn -1.000000 0.000000 0.000000
vn -1.000000 0.000000 0.000000
vn -1.000000 0.000000 0.000000
vn -1.000000 0.000000 0.000000
vn 0.000000 -1.000000 0.000000
vn 0.000000 -1.000000 0.000000
vn 0.000000 -1.000000 0.000000
vn 0.000000 -1.000000 0.000000
vn 1.000000 0.000000 0.000000
vn 1.000000 0.000000 0.000000
vn 1.000000 0.000000 0.000000
vn 1.000000 0.000000 0.000000
vn -0.032056 0.997112 0.068851
vn 0.000876 0.997493 0.070758
vn 0.000000 0.990598 0.136802
vn -0.063564 0.988595 0.136525
vn -1.000000 0.000000 0.000000
vn -1.000000 0.000000 0.000000
vn 0.000000 1.000000 0.000000
vn 0.001756 0.999998 0.000000
vn 1.000000 0.000000 0.000000
vn 1.000000 0.000000 0.000000
vn 0.000000 -1.000000 0.000000
vn 0.000000 -1.000000 0.000000
vn 0.000000 0.000000 1.000000
vn 0.000000 0.000000 1.000000
vn 0.000000 0.000000 1.000000
vn 0.000000 0.000000 1.000000
vn -0.019920 0.999040 0.039017
vn -0.047137 0.972360 0.228678
vn 0.066789 0.987401 0.143452
vn 0.067487 0.997720 0.000000
vn -0.001963 0.997352 -0.072693
vn 0.033712 0.996805 -0.072409
vn -0.000877 0.998790 -0.049163
vn -0.023757 0.998415 -0.051027
vn 0.000000 0.994817 -0.101686
vn -0.047290 0.993703 -0.101572
vn 0.000000 0.000000 -1.000000
vn 0.000000 0.000000 -1.000000
vn 0.000000 0.000000 -1.000000
vn 0.000000 0.000000 -1.000000
vn 0.000000 -1.000000 0.000000
vn 0.000000 -1.000000 0.000000
vn 0.000000 -1.000000 0.000000
vn 0.000000 -1.000000 0.000000
vn 0.000000 -1.000000 0.000000
vn 0.000000 -1.000000 0.000000
vn 0.000000 -1.000000 0.000000
vn 0.000000 -1.000000 0.000000
vn 0.000000 -1.000000 0.000000
vn 0.000000 -1.000000 0.000000
vn 0.000000 0.000000 1.000000
vn 0.000000 0.000000 1.000000
vn -0.032895 0.972650 0.229935
vn -0.039390 0.995264 0.088868
vn -0.016897 0.999198 -0.036291
vn 0.027959 0.999528 0.012736
vn 0.055847 0.998279 0.017911
vn 0.000000 0.000000 -1.000000
vn 0.000000 0.000000 -1.000000
vn 0.000000 -1.000000 0.000000
vn 0.000000 -1.000000 0.000000
vn 0.000000 -1.000000 0.000000
vn 0.000000 -1.000000 0.000000
vn 0.000000 -1.000000 0.000000
s 1
g pCube11
usemtl initialShadingGroup
f 1/71/1 31/72/2 32/73/3 3/74/4
s 2
f 3/21/5 32/22/6 33/23/7 17/24/8
s 3
f 5/81/9 36/82/10 37/83/11 7/84/12
s 4
f 18/46/13 40/47/14 31/48/15 1/49/16
s 5
f 2/1/17 19/2/18 20/3/19 4/4/20
s 6
f 17/11/21 18/12/22 1/13/23 3/14/24
f 7/19/25 13/18/26 14/17/27 5/20/28
s 4
f 7/59/29 37/60/30 38/55/31 13/54/32
s 5
f 15/8/33 16/7/34 8/9/35 6/10/36
s 2
f 14/33/37 35/32/38 36/38/39 5/39/40
s 6
f 14/17/27 13/18/26 10/16/41 9/15/42
s 2
f 9/28/43 34/27/44 35/32/38 14/33/37
s 5
f 12/6/45 11/5/46 16/7/34 15/8/33
s 4
f 13/54/32 38/55/31 39/51/47 10/50/48
s 6
f 9/15/42 10/16/41 18/12/22 17/11/21
s 4
f 10/50/48 39/51/47 40/47/14 18/46/13
s 5
f 20/3/19 19/2/18 11/5/46 12/6/45
s 2
f 17/24/8 33/23/7 34/27/44 9/28/43
s 1
f 43/78/49 44/77/50 2/79/51 4/80/52
s 2
f 42/30/53 43/29/54 4/34/55 20/35/56
f 41/36/57 42/30/53 20/35/56 12/40/58
f 50/41/59 41/36/57 12/40/58 15/43/60
f 49/44/61 50/41/59 15/43/60 6/45/62
s 3
f 48/88/63 49/87/64 6/89/65 8/90/66
s 4
f 47/66/67 48/68/68 8/70/69 16/69/70
f 46/62/71 47/66/67 16/69/70 11/67/72
f 45/57/73 46/62/71 11/67/72 19/63/74
f 44/58/75 45/57/73 19/63/74 2/64/76
s 1
f 32/73/3 31/72/2 21/75/77 22/76/78
s 2
f 33/23/7 32/22/6 22/25/79 23/26/80
f 34/27/44 33/23/7 23/26/80 24/31/81
f 35/32/38 34/27/44 24/31/81 25/37/82
f 36/38/39 35/32/38 25/37/82 26/42/83
s 3
f 37/83/11 36/82/10 26/85/84 27/86/85
s 4
f 38/55/31 37/60/30 27/65/86 28/61/87
f 39/51/47 38/55/31 28/61/87 29/56/88
f 40/47/14 39/51/47 29/56/88 30/52/89
f 31/48/15 40/47/14 30/52/89 21/53/90
s 2
f 24/31/81 23/26/80 42/30/53 41/36/57
f 23/26/80 22/25/79 43/29/54 42/30/53
s 1
f 22/76/78 21/75/77 44/77/50 43/78/49
s 4
f 21/53/90 30/52/89 45/57/73 44/58/75
f 30/52/89 29/56/88 46/62/71 45/57/73
f 29/56/88 28/61/87 47/66/67 46/62/71
f 28/61/87 27/65/86 48/68/68 47/66/67
s 3
f 27/86/85 26/85/84 49/87/64 48/88/63
s 2
f 26/42/83 25/37/82 50/41/59 49/44/61
f 25/37/82 24/31/81 41/36/57 50/41/59
