# This file uses meters as units for non-parametric coordinates.

mtllib zolla di terra.mtl
g default
v -518.748302 -50.000000 689.430682
v -24.653645 -50.000000 689.430682
v -518.748302 89.470131 689.430682
v -24.653645 89.470131 689.430682
v -518.748302 89.470131 575.641284
v -24.653645 89.470131 575.641284
v -518.748302 -50.000000 575.641284
v -24.653645 -50.000000 575.641284
vt 0.660933 0.001807
vt 0.983378 0.001807
vt 0.983378 0.451522
vt 0.660933 0.451522
vt 0.675563 0.455513
vt 0.998008 0.455513
vt 0.998008 0.905228
vt 0.675563 0.905228
vt 0.346983 0.777958
vt 0.346983 0.455513
vt 0.669428 0.455513
vt 0.669428 0.777958
vt 0.018402 0.777958
vt 0.018402 0.455513
vt 0.340847 0.455513
vt 0.340847 0.777958
vt 0.001992 0.001807
vt 0.324437 0.001807
vt 0.324437 0.451522
vt 0.001992 0.451522
vt 0.331560 0.001807
vt 0.654005 0.001807
vt 0.654005 0.451522
vt 0.331560 0.451522
vn 0.000000 0.000000 1.000000
vn 0.000000 0.000000 1.000000
vn 0.000000 0.000000 1.000000
vn 0.000000 0.000000 1.000000
vn 0.000000 1.000000 0.000000
vn 0.000000 1.000000 0.000000
vn 0.000000 1.000000 0.000000
vn 0.000000 1.000000 0.000000
vn 0.000000 0.000000 -1.000000
vn 0.000000 0.000000 -1.000000
vn 0.000000 0.000000 -1.000000
vn 0.000000 0.000000 -1.000000
vn 0.000000 -1.000000 0.000000
vn 0.000000 -1.000000 0.000000
vn 0.000000 -1.000000 0.000000
vn 0.000000 -1.000000 0.000000
vn 1.000000 0.000000 0.000000
vn 1.000000 0.000000 0.000000
vn 1.000000 0.000000 0.000000
vn 1.000000 0.000000 0.000000
vn -1.000000 0.000000 0.000000
vn -1.000000 0.000000 0.000000
vn -1.000000 0.000000 0.000000
vn -1.000000 0.000000 0.000000
s off
g polySurface12 pCube12
usemtl initialShadingGroup
f 1/17/1 2/18/2 4/19/3 3/20/4
f 3/9/5 4/10/6 6/11/7 5/12/8
f 5/21/9 6/22/10 8/23/11 7/24/12
f 7/13/13 8/14/14 2/15/15 1/16/16
f 2/1/17 8/2/18 6/3/19 4/4/20
f 7/5/21 1/6/22 3/7/23 5/8/24
